<svg xmlns="http://www.w3.org/2000/svg" viewBox="0 0 64 64"><defs><style>.cls-1{fill:#d0d7dc;}.cls-2{fill:#6e6e79;}.cls-3{fill:#4ea0ca;}.cls-4{fill:#7c828d;}.cls-5{fill:#ffd7a3;}.cls-6{fill:#29394a;}</style></defs><title>25-product</title><g id="_25-product" data-name="25-product"><path class="cls-1" d="M55,63H9V1H47l8,8Z"/><path class="cls-2" d="M55,9H49a2.006,2.006,0,0,1-2-2V1Z"/><path class="cls-3" d="M48,36V30H44.638a12.9,12.9,0,0,0-1.582-3.814l2.379-2.378-4.243-4.243-2.379,2.379A12.883,12.883,0,0,0,35,20.362V17H29v3.362a12.883,12.883,0,0,0-3.813,1.582l-2.379-2.379-4.243,4.243,2.379,2.378A12.9,12.9,0,0,0,19.362,30H16v6h3.362a12.9,12.9,0,0,0,1.582,3.814l-2.379,2.378,4.243,4.243,2.378-2.379A12.9,12.9,0,0,0,29,45.638V49h6V45.638a12.9,12.9,0,0,0,3.814-1.582l2.378,2.379,4.243-4.243-2.379-2.378A12.9,12.9,0,0,0,44.638,36ZM32,41a8,8,0,1,1,8-8A8,8,0,0,1,32,41Z"/><rect class="cls-4" x="29" y="15" width="6" height="7"/><polygon class="cls-5" points="40 15 40 30 24 30 24 15 29 15 29 22 35 22 35 15 40 15"/><path class="cls-6" d="M55.707,8.293l-8-8A1,1,0,0,0,47,0H9A1,1,0,0,0,8,1V63a1,1,0,0,0,1,1H55a1,1,0,0,0,1-1V9A1,1,0,0,0,55.707,8.293ZM48,3.414,52.586,8H49a1,1,0,0,1-1-1ZM10,62V2H46V7a3,3,0,0,0,3,3h5V62Z"/><path class="cls-6" d="M48,29H45.4a14.162,14.162,0,0,0-1.1-2.644l1.839-1.839L44.733,23.1l-2.38,2.38a1,1,0,0,0-.146,1.23,12.189,12.189,0,0,1,1.46,3.521A1,1,0,0,0,44.64,31H47v4H44.64a1,1,0,0,0-.973.766,12.189,12.189,0,0,1-1.46,3.521,1,1,0,0,0,.146,1.23l1.672,1.672-2.836,2.829-1.674-1.667a1,1,0,0,0-1.228-.144,12.189,12.189,0,0,1-3.521,1.46A1,1,0,0,0,34,45.64V48H30V45.64a1,1,0,0,0-.766-.973,12.189,12.189,0,0,1-3.521-1.46,1,1,0,0,0-1.228.144l-1.674,1.667-2.836-2.829,1.672-1.672a1,1,0,0,0,.146-1.23,12.189,12.189,0,0,1-1.46-3.521A1,1,0,0,0,19.36,35H17V31h2.36a1,1,0,0,0,.973-.766,12.189,12.189,0,0,1,1.46-3.521,1,1,0,0,0-.146-1.23l-2.38-2.38-1.414,1.414,1.839,1.839A14.162,14.162,0,0,0,18.6,29H16a1,1,0,0,0-1,1v6a1,1,0,0,0,1,1h2.6a14.162,14.162,0,0,0,1.1,2.644l-1.839,1.839a1,1,0,0,0,0,1.415l4.25,4.24a1,1,0,0,0,1.411,0l1.839-1.831A14.208,14.208,0,0,0,28,46.4V49a1,1,0,0,0,1,1h6a1,1,0,0,0,1-1V46.4a14.208,14.208,0,0,0,2.646-1.1l1.839,1.831a1,1,0,0,0,1.411,0l4.25-4.24a1,1,0,0,0,0-1.415l-1.839-1.839A14.162,14.162,0,0,0,45.4,37H48a1,1,0,0,0,1-1V30A1,1,0,0,0,48,29Z"/><path class="cls-6" d="M32,42a9.01,9.01,0,0,0,9-9H39a7,7,0,0,1-14,0H23A9.01,9.01,0,0,0,32,42Z"/><path class="cls-6" d="M24,31H40a1,1,0,0,0,1-1V15a1,1,0,0,0-1-1H24a1,1,0,0,0-1,1V30A1,1,0,0,0,24,31Zm6-15h4v5H30Zm-5,0h3v6a1,1,0,0,0,1,1h6a1,1,0,0,0,1-1V16h3V29H25Z"/></g></svg>