<svg xmlns="http://www.w3.org/2000/svg" viewBox="0 0 32 32"><defs><style>.cls-1{fill:#231f20;}</style></defs><g id="discount_coupon" data-name="discount coupon"><path class="cls-1" d="M20,23H6.78a4.63,4.63,0,0,0-1.07-1.71A4.76,4.76,0,0,0,4,20.22V11.78a4.63,4.63,0,0,0,1.71-1.07A4.71,4.71,0,0,0,6.78,9H8A1,1,0,0,0,8,7H6.44A1.55,1.55,0,0,0,5,8.14a2.47,2.47,0,0,1-.66,1.15A2.47,2.47,0,0,1,3.14,10,1.54,1.54,0,0,0,2,11.44v9.08a1.58,1.58,0,0,0,1.16,1.53,2.62,2.62,0,0,1,1.13.66A2.47,2.47,0,0,1,5,23.86,1.55,1.55,0,0,0,6.44,25H20a1,1,0,0,0,0-2Z"/><path class="cls-1" d="M28.84,10a2.62,2.62,0,0,1-1.13-.66,2.47,2.47,0,0,1-.66-1.15A1.55,1.55,0,0,0,25.56,7H12a1,1,0,0,0,0,2H25.22a4.63,4.63,0,0,0,1.07,1.71A4.76,4.76,0,0,0,28,11.78v8.44a4.63,4.63,0,0,0-1.71,1.07A4.71,4.71,0,0,0,25.22,23H24a1,1,0,0,0,0,2h1.56a1.55,1.55,0,0,0,1.49-1.14,2.54,2.54,0,0,1,1.81-1.81A1.54,1.54,0,0,0,30,20.56V11.48A1.58,1.58,0,0,0,28.84,10Z"/><path class="cls-1" d="M12.29,12.29l-6,6a1,1,0,0,0,0,1.42,1,1,0,0,0,1.42,0l6-6a1,1,0,0,0-1.42-1.42Z"/><path class="cls-1" d="M7,14a1,1,0,0,0,0-2H7a1,1,0,1,0,0,2Z"/><path class="cls-1" d="M13,18a1,1,0,1,0,1,1,1,1,0,0,0-1-1Z"/><path class="cls-1" d="M18,14h5a1,1,0,0,0,0-2H18a1,1,0,0,0,0,2Z"/><path class="cls-1" d="M18,17h7a1,1,0,0,0,0-2H18a1,1,0,0,0,0,2Z"/><path class="cls-1" d="M18,20h7a1,1,0,0,0,0-2H18a1,1,0,0,0,0,2Z"/></g></svg>